<svg width="128" height="128" viewBox="0 0 128 128" fill="none" xmlns="http://www.w3.org/2000/svg">
<rect width="128" height="128" fill="url(#paint0_linear_1_6)"/>
<path d="M54.1761 2.72519C54.1761 35.2669 54.1761 103.416 54.1761 115.68C54.1761 127.943 33.1989 128.992 30.375 115.68V84.2138" stroke="#FFFEFE" stroke-width="3"/>
<path d="M65.7585 70.4814C65.2625 70.4814 64.8025 70.3734 64.3785 70.1574C63.9625 69.9494 63.6185 69.6534 63.3465 69.2694L64.0185 68.4534C64.4825 69.1174 65.0585 69.4494 65.7465 69.4494C66.7145 69.4494 67.1985 68.8814 67.1985 67.7454V61.8294H64.1745V60.7854H68.3985V67.6854C68.3985 68.6134 68.1745 69.3094 67.7265 69.7734C67.2865 70.2454 66.6305 70.4814 65.7585 70.4814ZM76.6635 64.9374H77.8155V69.1854H76.7595V68.6214C76.1435 69.0614 75.3635 69.2814 74.4195 69.2814C73.6595 69.2814 72.9515 69.1134 72.2955 68.7774C71.6475 68.4414 71.1275 67.9534 70.7355 67.3134C70.3515 66.6654 70.1595 65.9014 70.1595 65.0214C70.1595 64.1894 70.3515 63.4454 70.7355 62.7894C71.1275 62.1334 71.6635 61.6214 72.3435 61.2534C73.0315 60.8774 73.8035 60.6894 74.6595 60.6894C75.3315 60.6894 75.9395 60.8014 76.4835 61.0254C77.0355 61.2414 77.5035 61.5614 77.8875 61.9854L77.1435 62.7294C76.4715 62.0814 75.6595 61.7574 74.7075 61.7574C74.0675 61.7574 73.4915 61.8974 72.9795 62.1774C72.4755 62.4574 72.0795 62.8454 71.7915 63.3414C71.5035 63.8374 71.3595 64.3974 71.3595 65.0214C71.3595 65.6854 71.5035 66.2614 71.7915 66.7494C72.0875 67.2374 72.4755 67.6094 72.9555 67.8654C73.4355 68.1134 73.9555 68.2374 74.5155 68.2374C74.9075 68.2374 75.2875 68.1734 75.6555 68.0454C76.0315 67.9094 76.3675 67.7134 76.6635 67.4574V64.9374ZM80.113 60.7854H83.653C84.541 60.7854 85.329 60.9614 86.017 61.3134C86.705 61.6654 87.237 62.1614 87.613 62.8014C87.997 63.4334 88.189 64.1614 88.189 64.9854C88.189 65.8094 87.997 66.5414 87.613 67.1814C87.237 67.8134 86.705 68.3054 86.017 68.6574C85.329 69.0094 84.541 69.1854 83.653 69.1854H80.113V60.7854ZM83.581 68.1414C84.261 68.1414 84.857 68.0094 85.369 67.7454C85.889 67.4814 86.289 67.1134 86.569 66.6414C86.849 66.1614 86.989 65.6094 86.989 64.9854C86.989 64.3614 86.849 63.8134 86.569 63.3414C86.289 62.8614 85.889 62.4894 85.369 62.2254C84.857 61.9614 84.261 61.8294 83.581 61.8294H81.313V68.1414H83.581ZM92.727 68.2494C93.487 68.2494 94.099 67.9934 94.563 67.4814L95.187 68.2254C94.907 68.5614 94.551 68.8174 94.119 68.9934C93.695 69.1694 93.219 69.2574 92.691 69.2574C92.019 69.2574 91.423 69.1214 90.903 68.8494C90.383 68.5694 89.979 68.1814 89.691 67.6854C89.411 67.1894 89.271 66.6294 89.271 66.0054C89.271 65.3894 89.407 64.8334 89.679 64.3374C89.959 63.8414 90.339 63.4574 90.819 63.1854C91.307 62.9054 91.855 62.7654 92.463 62.7654C93.039 62.7654 93.563 62.8974 94.035 63.1614C94.507 63.4174 94.883 63.7814 95.163 64.2534C95.443 64.7254 95.587 65.2694 95.595 65.8854L90.543 66.8694C90.703 67.3094 90.971 67.6494 91.347 67.8894C91.731 68.1294 92.191 68.2494 92.727 68.2494ZM92.463 63.7374C92.063 63.7374 91.703 63.8294 91.383 64.0134C91.071 64.1974 90.827 64.4574 90.651 64.7934C90.475 65.1214 90.387 65.5054 90.387 65.9454V66.0654L94.455 65.2974C94.351 64.8334 94.119 64.4574 93.759 64.1694C93.399 63.8814 92.967 63.7374 92.463 63.7374ZM102.718 62.8254L99.9335 69.1854H98.7575L95.9735 62.8254H97.1735L99.3575 67.9254L101.59 62.8254H102.718Z" fill="white"/>
<defs>
<linearGradient id="paint0_linear_1_6" x1="126.75" y1="-1.1255e-06" x2="0" y2="128" gradientUnits="userSpaceOnUse">
<stop offset="0.00195312" stop-color="#403F3F"/>
<stop offset="1" stop-color="#1E1E1E" stop-opacity="0"/>
</linearGradient>
</defs>
</svg>
